<svg width="1440" height="558" viewBox="0 0 1440 558" fill="none" xmlns="http://www.w3.org/2000/svg">
<path opacity="0.7" d="M-4 0H1444V558C1444 558 1313.68 513.025 1286.24 442.131C1258.81 371.238 1278.62 293.832 1200.13 248.508C1138.91 213.161 1051.79 270.005 984.451 248.508C894.187 219.692 932.249 84.8264 838.126 73.9426C763.036 65.2597 720 145.598 720 145.598C720 145.598 633.882 42.0234 550.051 96.0492C493.274 132.639 511.518 219.692 421.255 248.508C353.916 270.005 238.218 203.252 177 238.598C114.928 274.438 256.926 324.879 221.583 387.246C207.121 412.767 124.806 411.016 82.1179 441.369C20.4861 485.191 -4 558 -4 558V0Z" fill="url(#paint0_radial_40_2)"/>
<path d="M94.031 337.68C75.4585 348.575 97.8753 377.915 123.031 380.202C172.531 384.702 214.601 356.465 214.601 356.465C214.601 356.465 200.529 368.552 217.486 374.931C250.751 387.445 286.194 360.801 287.275 359.979C286.516 360.561 269.06 374.089 280.801 379.96C292.801 385.96 310.1 376.325 347.801 379.96C395.283 384.538 457.855 397.697 491.801 399.96C525.746 402.223 545.249 397.46 571.801 386.46C598.352 375.46 613.261 347.46 612.031 343.46C610.801 339.46 589.301 361.436 501.801 356.465C414.301 351.494 344.301 330.46 265.301 321.96C217.761 316.845 109.323 328.709 94.031 337.68Z" fill="#FF9EE2"/>
<path d="M1345.82 337.68C1364.39 348.575 1341.98 377.915 1316.82 380.202C1267.32 384.703 1225.25 356.465 1225.25 356.465C1225.25 356.465 1239.32 368.552 1222.37 374.931C1189.1 387.445 1153.66 360.801 1152.58 359.979C1153.34 360.561 1170.79 374.09 1159.05 379.96C1147.05 385.96 1129.75 376.325 1092.05 379.96C1044.57 384.538 981.997 397.697 948.052 399.96C914.106 402.223 894.604 397.46 868.052 386.46C841.5 375.46 826.591 347.46 827.822 343.46C829.052 339.46 850.552 361.437 938.052 356.465C1025.55 351.494 1095.55 330.46 1174.55 321.96C1222.09 316.845 1330.53 328.709 1345.82 337.68Z" fill="#FF9EE2"/>
<defs>
<radialGradient id="paint0_radial_40_2" cx="0" cy="0" r="1" gradientUnits="userSpaceOnUse" gradientTransform="translate(720 223.5) rotate(90) scale(334.5 1039.95)">
<stop offset="0.197115" stop-color="#FF9EE2"/>
<stop offset="0.350962" stop-color="#A469BB"/>
<stop offset="0.596154" stop-color="#4A3395"/>
<stop offset="1" stop-color="#200A3C"/>
</radialGradient>
</defs>
</svg>
