<svg width="1295" height="201" viewBox="0 0 1295 201" fill="none" xmlns="http://www.w3.org/2000/svg">
<path d="M47.0531 182.494C21.7237 180.192 -0.848032 150.649 17.8527 139.678C33.2507 130.646 140.46 126.872 194.464 111.617C292.406 83.9516 360.201 13.1185 423.636 18.3679C487.072 23.6173 542.452 86.3346 539.431 89.3553C536.41 92.376 515.265 77.0617 488.078 68.2103C460.892 59.3588 442.369 58.4315 423.636 59.1475C344.594 62.1688 274.111 150.511 237.862 157.322C203.308 163.814 224.835 141.896 226.923 139.833C223.8 142.872 175.076 189.569 142.161 177.187C125.086 170.763 139.256 158.593 139.256 158.593C139.256 158.593 96.895 187.026 47.0531 182.494Z" fill="#FF9EE2"/>
<path d="M509.045 172.877C517.548 142.208 485.051 71.8244 434.647 70.9188C383.552 70.0009 345.793 137.232 355.996 172.877C366.2 208.522 500.543 203.546 509.045 172.877Z" fill="url(#paint0_linear_18_79)"/>
<path d="M1247.32 182.494C1272.65 180.192 1295.22 150.649 1276.52 139.678C1261.13 130.646 1153.92 126.872 1099.91 111.617C1001.97 83.9516 934.176 13.1185 870.741 18.3679C807.305 23.6173 751.925 86.3346 754.946 89.3553C757.967 92.376 779.112 77.0617 806.299 68.2103C833.485 59.3588 852.008 58.4315 870.741 59.1475C949.783 62.1688 1020.27 150.511 1056.51 157.322C1091.07 163.814 1069.54 141.896 1067.45 139.833C1070.58 142.872 1119.3 189.569 1152.22 177.187C1169.29 170.763 1155.12 158.593 1155.12 158.593C1155.12 158.593 1197.48 187.026 1247.32 182.494Z" fill="#FF9EE2"/>
<path d="M785.333 172.877C776.83 142.208 809.327 71.8244 859.732 70.9188C910.826 70.0009 948.585 137.232 938.382 172.877C928.179 208.522 793.836 203.546 785.333 172.877Z" fill="url(#paint1_linear_18_79)"/>
<defs>
<linearGradient id="paint0_linear_18_79" x1="432.36" y1="70.9095" x2="432.36" y2="197.78" gradientUnits="userSpaceOnUse">
<stop stop-color="#ACF5FF"/>
<stop offset="0.302885" stop-color="#FF7FD9"/>
<stop offset="1" stop-color="#FFE875"/>
</linearGradient>
<linearGradient id="paint1_linear_18_79" x1="862.019" y1="70.9095" x2="862.019" y2="197.78" gradientUnits="userSpaceOnUse">
<stop stop-color="#ACF5FF"/>
<stop offset="0.302885" stop-color="#FF7FD9"/>
<stop offset="1" stop-color="#FFE875"/>
</linearGradient>
</defs>
</svg>
