<svg width="1440" height="558" viewBox="0 0 1440 558" fill="none" xmlns="http://www.w3.org/2000/svg">
<path opacity="0.7" d="M-4 0H1444V558C1444 558 1313.68 513.025 1286.24 442.131C1258.81 371.238 1278.62 293.832 1200.13 248.508C1138.91 213.161 1051.79 270.005 984.451 248.508C894.187 219.692 932.249 84.8264 838.126 73.9426C763.036 65.2597 720 145.598 720 145.598C720 145.598 633.882 42.0234 550.051 96.0492C493.274 132.639 511.518 219.692 421.255 248.508C353.916 270.005 238.218 203.252 177 238.598C114.928 274.438 256.926 324.879 221.583 387.246C207.121 412.767 124.806 411.016 82.1179 441.369C20.4861 485.191 -4 558 -4 558V0Z" fill="url(#paint0_radial_40_3)"/>
<path d="M120.053 377.642C94.7235 375.339 72.1518 345.796 90.8526 334.826C106.251 325.793 213.46 322.02 267.464 306.765C365.406 279.099 433.201 208.266 496.636 213.516C560.071 218.765 615.451 281.482 612.431 284.503C609.41 287.524 588.265 272.209 561.078 263.358C533.892 254.507 515.368 253.579 496.636 254.295C417.594 257.317 347.111 345.659 310.862 352.469C276.308 358.961 297.835 337.044 299.923 334.981C296.799 338.02 248.076 384.717 215.161 372.335C198.086 365.911 212.256 353.741 212.256 353.741C212.256 353.741 169.895 382.173 120.053 377.642Z" fill="#FF9EE2"/>
<path d="M582.045 368.025C590.548 337.356 558.051 266.972 507.647 266.067C456.552 265.149 418.793 332.38 428.996 368.025C439.2 403.67 573.543 398.694 582.045 368.025Z" fill="url(#paint1_linear_40_3)"/>
<path d="M1320.32 377.642C1345.65 375.339 1368.23 345.796 1349.52 334.826C1334.13 325.793 1226.92 322.02 1172.91 306.765C1074.97 279.099 1007.18 208.266 943.741 213.516C880.306 218.765 824.926 281.482 827.946 284.503C830.967 287.524 852.112 272.209 879.299 263.358C906.485 254.507 925.009 253.579 943.741 254.295C1022.78 257.317 1093.27 345.659 1129.51 352.469C1164.07 358.961 1142.54 337.044 1140.45 334.981C1143.58 338.02 1192.3 384.717 1225.22 372.335C1242.29 365.911 1228.12 353.741 1228.12 353.741C1228.12 353.741 1270.48 382.173 1320.32 377.642Z" fill="#FF9EE2"/>
<path d="M858.333 368.025C849.83 337.356 882.327 266.972 932.732 266.067C983.826 265.149 1021.59 332.38 1011.38 368.025C1001.18 403.67 866.836 398.694 858.333 368.025Z" fill="url(#paint2_linear_40_3)"/>
<defs>
<radialGradient id="paint0_radial_40_3" cx="0" cy="0" r="1" gradientUnits="userSpaceOnUse" gradientTransform="translate(720 223.5) rotate(90) scale(334.5 1039.95)">
<stop offset="0.197115" stop-color="#FF9EE2"/>
<stop offset="0.350962" stop-color="#A469BB"/>
<stop offset="0.596154" stop-color="#4A3395"/>
<stop offset="1" stop-color="#200A3C"/>
</radialGradient>
<linearGradient id="paint1_linear_40_3" x1="505.36" y1="266.057" x2="505.36" y2="392.928" gradientUnits="userSpaceOnUse">
<stop stop-color="#ACF5FF"/>
<stop offset="0.302885" stop-color="#FF7FD9"/>
<stop offset="1" stop-color="#FFE875"/>
</linearGradient>
<linearGradient id="paint2_linear_40_3" x1="935.019" y1="266.057" x2="935.019" y2="392.928" gradientUnits="userSpaceOnUse">
<stop stop-color="#ACF5FF"/>
<stop offset="0.302885" stop-color="#FF7FD9"/>
<stop offset="1" stop-color="#FFE875"/>
</linearGradient>
</defs>
</svg>
